<svg width="74" height="52" viewBox="0 0 74 52" fill="none" xmlns="http://www.w3.org/2000/svg">
<path d="M16.0229 26.197C15.9659 22.112 19.0629 18.901 23.1099 18.958C25.6939 18.958 27.8409 20.193 29.0379 22.093L27.0049 23.233C26.1499 21.922 24.7819 21.143 23.1099 21.143C20.2979 21.143 18.3789 23.347 18.3789 26.197C18.3789 29.028 20.2979 31.232 23.1099 31.232C24.7819 31.232 26.1499 30.453 27.0049 29.142L29.0379 30.301C27.8219 32.201 25.6939 33.436 23.1099 33.436C19.0629 33.512 15.9659 30.282 16.0229 26.197ZM37.522 23.005V25.114C37.256 25.019 36.876 24.962 36.363 24.962C35.508 24.962 34.786 25.247 34.235 25.836C33.684 26.406 33.418 27.128 33.418 28.021V33.17H31.119V23.043H33.418V24.848C33.931 23.632 35.033 22.853 36.401 22.853C36.876 22.853 37.256 22.91 37.522 23.005ZM49.2364 28.933H41.0664C41.3894 30.529 42.6624 31.479 44.3534 31.479C45.5504 31.479 46.6144 30.947 47.2034 30.111L48.9704 31.251C48.1154 32.562 46.3294 33.436 44.3534 33.436C41.1424 33.436 38.8434 31.156 38.8434 28.097C38.8434 25.076 41.0474 22.777 44.0684 22.777C47.0894 22.777 49.2934 24.848 49.2934 27.831C49.2934 28.268 49.2744 28.629 49.2364 28.933ZM41.0664 27.242H47.0704C46.9754 25.722 45.7784 24.696 44.0874 24.696C42.5674 24.696 41.3894 25.646 41.0664 27.242ZM52.1925 23.043L55.3465 30.415L58.5005 23.043H60.9135L56.4485 33.17H54.1685L49.7225 23.043H52.1925ZM61.3502 28.097C61.3502 25.076 63.6302 22.777 66.7272 22.777C69.7672 22.72 72.1612 25.114 72.1042 28.097C72.1612 31.08 69.7672 33.493 66.7272 33.436C63.6302 33.436 61.3502 31.156 61.3502 28.097ZM69.9002 28.097C69.9002 26.235 68.6082 24.791 66.7272 24.791C64.8462 24.791 63.5352 26.235 63.5352 28.097C63.5352 29.978 64.8462 31.422 66.7272 31.422C68.6082 31.422 69.9002 29.978 69.9002 28.097Z" fill="#181A36"/>
<path fill-rule="evenodd" clip-rule="evenodd" d="M28.8164 0.14932C27.4597 0.50412 26.5524 1.21492 25.4197 2.81052C24.4804 4.13372 24.5853 4.10172 20.6951 4.25152C2.23754 4.96192 -6.61159 26.6511 5.69115 41.0261C9.53538 45.5175 16.4119 48.3947 22.1315 47.9047C23.9775 47.7465 24.5338 48.0155 25.606 49.5851C29.281 54.9643 36.9606 50.2269 34.1346 44.3237C32.637 41.1953 31.3017 40.7027 23.924 40.5557C17.3567 40.4249 16.2974 40.2303 13.8078 38.6981C4.62344 33.0459 4.47334 19.9615 13.5236 13.9445C16.252 12.1307 17.9528 11.7655 24.5111 11.5853C31.4497 11.3947 32.4865 11.0177 34.0191 8.12892C36.1843 4.04792 32.9395 -0.92888 28.8164 0.14932Z" fill="url(#paint0_angular_13_2)"/>
<defs>
<radialGradient id="paint0_angular_13_2" cx="0" cy="0" r="1" gradientUnits="userSpaceOnUse" gradientTransform="translate(22.6027 25) rotate(171.218) scale(17.0294 16.9633)">
<stop offset="0.172197" stop-color="#3A6DBA"/>
<stop offset="0.19126" stop-color="#3A67BB"/>
<stop offset="0.338792" stop-color="#3C9FB3"/>
<stop offset="0.73725" stop-color="#FF5870"/>
<stop offset="0.900292" stop-color="#91439C"/>
</radialGradient>
</defs>
</svg>
