<svg width="300" height="300" viewBox="0 0 300 300" fill="none" xmlns="http://www.w3.org/2000/svg">
<path d="M124.413 156.08C124.413 130.64 143.613 111.28 169.693 111.28C195.293 110.8 215.453 130.96 214.973 156.08C215.453 181.2 195.293 201.52 169.693 201.04C143.613 201.04 124.413 181.84 124.413 156.08ZM196.413 156.08C196.413 140.4 185.533 128.24 169.693 128.24C153.853 128.24 142.813 140.4 142.813 156.08C142.813 171.92 153.853 184.08 169.693 184.08C185.533 184.08 196.413 171.92 196.413 156.08Z" fill="#181A36"/>
<path fill-rule="evenodd" clip-rule="evenodd" d="M212.549 6.82925C204.99 8.79963 199.935 12.7471 193.624 21.6082C188.391 28.9566 188.975 28.7789 167.301 29.6108C64.4663 33.556 15.164 154.007 83.7078 233.839C105.126 258.782 143.438 274.76 175.304 272.039C185.589 271.161 188.688 272.654 194.662 281.371C215.137 311.245 257.924 284.935 242.179 252.152C233.834 234.778 226.395 232.043 185.291 231.226C148.702 230.5 142.8 229.419 128.929 220.91C77.7592 189.521 76.9229 116.856 127.346 83.4409C142.547 73.368 152.023 71.3398 188.562 70.3391C227.22 69.2806 232.996 67.1869 241.535 51.144C253.598 28.4801 235.52 0.841461 212.549 6.82925Z" fill="url(#paint0_angular_6_6)"/>
<defs>
<radialGradient id="paint0_angular_6_6" cx="0" cy="0" r="1" gradientUnits="userSpaceOnUse" gradientTransform="translate(177.93 144.838) rotate(171.246) scale(94.871 94.2131)">
<stop offset="0.172197" stop-color="#3A6DBA"/>
<stop offset="0.19126" stop-color="#3A67BB"/>
<stop offset="0.338792" stop-color="#3C9FB3"/>
<stop offset="0.73725" stop-color="#FF5870"/>
<stop offset="0.900292" stop-color="#91439C"/>
</radialGradient>
</defs>
</svg>
